<?xml version="1.0" standalone="no"?>
<!DOCTYPE svg PUBLIC "-//W3C//DTD SVG 20010904//EN">
<svg version="1.0" xmlns="http://www.w3.org/2000/svg"
 width="658.000000pt" height="548.000000pt" viewBox="0 0 658.000000 548.000000"
 preserveAspectRatio="xMidYMid meet">

<g transform="translate(0.000000,548.000000) scale(0.100000,-0.100000)"
fill="#000000" stroke="none">
<path d="M1904 4520 c-55 -28 -84 -80 -91 -170 -5 -62 -8 -70 -26 -70 -12 0
-50 -7 -86 -16 -217 -53 -399 -226 -472 -449 l-24 -70 -3 -970 c-2 -576 1
-1008 7 -1066 5 -53 21 -128 34 -168 73 -209 264 -375 483 -418 l81 -16 6 -68
c8 -89 36 -142 92 -169 122 -59 235 26 235 177 l0 63 159 0 159 0 3 -79 c4
-85 18 -114 73 -155 39 -29 133 -29 172 0 55 41 69 70 73 155 l3 79 499 0 499
0 0 -66 c0 -79 19 -125 68 -162 46 -35 135 -38 178 -6 54 40 69 70 74 152 l5
77 156 3 156 2 6 -75 c7 -89 28 -131 85 -163 117 -66 242 23 242 172 l0 61 85
16 c131 26 223 76 326 178 70 70 94 102 127 171 75 154 73 117 70 1260 l-3
1015 -27 80 c-79 232 -266 399 -494 444 l-82 16 -4 71 c-6 86 -32 136 -89 164
-49 26 -92 25 -145 -1 -61 -29 -86 -74 -92 -165 l-5 -74 -156 2 -156 3 -5 77
c-5 82 -20 112 -74 152 -43 32 -132 29 -178 -6 -49 -37 -68 -83 -68 -162 l0
-66 -499 0 -499 0 -3 79 c-4 85 -18 114 -73 155 -39 29 -133 29 -172 0 -55
-41 -69 -70 -73 -155 l-3 -79 -159 0 -159 0 0 63 c0 150 -115 236 -236 177z
m1216 -814 l0 -254 -27 -6 c-243 -58 -463 -262 -550 -511 -26 -74 -28 -91 -28
-235 0 -144 2 -161 29 -243 79 -242 280 -438 515 -503 l61 -17 0 -254 0 -253
-640 0 c-672 0 -711 2 -785 45 -103 60 -156 152 -163 283 l-5 82 136 0 c75 0
160 5 189 11 121 25 234 115 286 227 l27 57 0 555 0 555 -24 60 c-17 42 -42
78 -85 121 -103 102 -173 124 -394 124 l-134 0 4 88 c5 104 32 166 101 229
101 93 81 91 840 92 l647 1 0 -254z m1652 243 c72 -15 115 -39 164 -91 65 -68
87 -119 92 -219 l4 -87 -168 -4 c-165 -3 -171 -4 -236 -35 -115 -54 -188 -137
-222 -252 -23 -79 -24 -1036 -1 -1125 38 -144 153 -253 303 -285 29 -6 114
-11 187 -11 l135 0 0 -69 c0 -97 -24 -163 -83 -228 -28 -30 -66 -62 -86 -73
-76 -38 -133 -41 -786 -38 l-630 3 -3 251 -2 250 49 13 c127 32 296 140 381
243 324 388 203 974 -245 1193 -49 24 -111 49 -137 56 l-48 11 0 248 c0 135 3
250 7 253 12 12 1267 8 1325 -4z m-2943 -755 c21 -26 21 -36 21 -499 0 -582
20 -525 -181 -525 l-139 0 0 525 0 525 139 0 c139 0 140 0 160 -26z m3200
-499 l-1 -525 -136 0 c-112 0 -139 3 -154 17 -17 15 -18 44 -18 506 0 442 2
492 17 509 14 16 33 18 154 18 l138 0 0 -525z m-1909 0 c0 -289 -3 -415 -11
-415 -22 0 -103 55 -148 101 -163 166 -174 420 -26 600 37 44 149 128 173 129
9 0 12 -90 12 -415z m406 375 c225 -147 271 -456 99 -666 -36 -44 -147 -124
-171 -124 -12 0 -14 68 -14 415 0 327 3 415 13 415 7 0 40 -18 73 -40z"/>
</g>
</svg>
